<svg viewBox="0 0 1600 800" xmlns="http://www.w3.org/2000/svg">
        <path
          d="M362.338,735.354C370.269,745.563,387.664,753.307,402.01,756.466C416.885,759.741,436.902,759.319,450.251,753.782C462.355,748.762,475.9,735.87,479.829,727.273C482.335,721.788,481.626,716.725,480.108,711.111C478.163,703.915,473.392,694.968,466.332,688.404C457.127,679.844,440.105,670.718,426.131,667.849C412.607,665.073,396.01,665.305,383.947,670.707C371.893,676.105,357.001,688.926,353.769,700.227C350.778,710.685,355.223,726.196,362.338,735.354"
          stroke="black"
          stroke-width="1"
          fill="none"
          stroke-linecap="round"
          stroke-miterlimit="4"
        ></path>
        <path
          d="M1172.314,4C1172.314,4,1211.818,26.451,1225.605,40.404C1237.562,52.505,1249.348,66.707,1252.504,80.808C1255.399,93.743,1253.582,110.547,1246.52,121.212C1238.909,132.705,1221.795,141.762,1206.03,145.925C1187.668,150.775,1161.123,149.706,1141.709,143.891C1123.149,138.332,1102.452,124.238,1091.585,113.131C1084.077,105.458,1080.678,97.879,1077.427,88.889C1073.914,79.176,1071.986,67.182,1072.03,56.566C1072.073,46.241,1073.867,35.08,1077.387,26.04C1080.621,17.735,1091.482,4,1091.482,4"
          stroke="black"
          stroke-width="1"
          fill="none"
          stroke-linecap="round"
          stroke-miterlimit="4"
        ></path>
        <path
          d="M1343.189,735.354C1344.291,741.355,1350.17,747.561,1357.855,751.515C1371.189,758.376,1401.38,761.538,1423.116,759.156C1445.935,756.655,1474.969,745.446,1491.515,735.354C1503.046,728.321,1511.853,718.97,1516.997,711.111C1520.594,705.616,1524.052,700.201,1522.875,694.949C1521.393,688.337,1512.384,679.67,1503.518,675.757C1491.715,670.548,1471.983,671.836,1455.276,673.338C1436.733,675.004,1415.032,679.495,1397.329,686.869C1380.314,693.955,1359.204,705.872,1350.754,716.063C1345.565,722.32,1342.115,729.506,1343.189,735.354"
          stroke="black"
          stroke-width="1"
          fill="none"
          stroke-linecap="round"
          stroke-miterlimit="4"
        ></path>
        <path
          d="M458.291,795.504C458.291,795.504,500.962,782.834,514.573,771.363C525.968,761.76,535.558,748.227,537.93,735.354C540.257,722.723,535.865,707.75,529.277,694.949C521.498,679.836,505.93,663.668,490.452,652.4C474.415,640.724,453.392,631.242,434.171,626.761C415.83,622.486,395.941,621.755,377.889,625.043C359.849,628.328,339.675,636.282,325.89,646.465C313.605,655.539,297.487,680.937,297.487,680.937"
          stroke="black"
          stroke-width="1"
          fill="none"
          stroke-linecap="round"
          stroke-miterlimit="4"
        ></path>
        <path
          d="M364.525,161.616C368.049,167.883,374.756,173.018,383.797,177.778C398.77,185.661,428.095,194.209,450.251,196.267C471.687,198.258,498.748,195.495,514.573,190.713C524.796,187.624,533.001,183.37,538.212,177.778C542.444,173.235,545.475,167.036,545.626,161.616C545.776,156.261,542.951,150.395,539.28,145.455C534.778,139.395,527.742,133.906,518.753,129.293C505.762,122.626,485.399,115.994,466.332,114.145C444.332,112.013,412.559,113.589,393.97,120.532C380.226,125.665,365.318,135.439,361.809,143.828C359.447,149.475,361.545,156.316,364.525,161.616"
          stroke="black"
          stroke-width="1"
          fill="none"
          stroke-linecap="round"
          stroke-miterlimit="4"
        ></path>
        <path
          d="M998.247,4C998.247,4,998.281,65.124,1005.265,88.889C1010.874,107.973,1018.08,123.666,1031.079,137.374C1046.048,153.159,1069.92,166.434,1093.467,174.97C1119.568,184.431,1153.183,189.226,1181.91,188.626C1209.4,188.052,1242.92,180.849,1262.312,172.75C1274.841,167.517,1282.83,161.095,1290.621,153.535C1297.908,146.465,1304.134,137.761,1308.165,129.293C1311.856,121.537,1314.097,113.773,1314.666,105.051C1315.314,95.109,1315.151,84.83,1310.381,72.727C1302.707,53.257,1261.413,4,1261.413,4"
          stroke="black"
          stroke-width="1"
          fill="none"
          stroke-linecap="round"
          stroke-miterlimit="4"
        ></path>
        <path
          d="M1596,708.779C1596,708.779,1541.591,753.899,1511.877,767.677C1483.785,780.703,1453.559,788.295,1423.116,791.056C1391.857,793.89,1350.383,789.787,1326.633,783.643C1311.685,779.776,1300.285,775.17,1291.783,767.677C1284.448,761.212,1277.852,750.925,1276.732,743.434C1275.874,737.701,1278.003,732.825,1281.009,727.273C1285.211,719.514,1292.509,711.233,1302.875,703.03C1319.499,689.875,1349.704,673.447,1376.493,662.626C1405.48,650.919,1437.312,643.333,1471.357,636.803C1509.813,629.427,1596,622.629,1596,622.629"
          stroke="black"
          stroke-width="1"
          fill="none"
          stroke-linecap="round"
          stroke-miterlimit="4"
        ></path>
        <path
          d="M295.926,796C295.926,796,274.567,778.144,267.043,767.677C259.953,757.814,254.533,746.411,251.378,735.354C248.377,724.835,247.157,713.992,247.984,703.03C248.865,691.358,252.313,678.25,257.286,667.374C262.147,656.746,269.03,647.052,277.233,638.384C285.94,629.182,296.991,620.79,308.609,614.141C320.763,607.187,334.833,601.66,348.878,597.98C363.257,594.212,378.682,592.104,393.97,592.043C409.775,591.979,427.085,594.198,442.211,598.002C456.458,601.586,469.386,606.768,482.412,613.592C496.234,620.833,510.228,630.169,522.613,640.813C535.395,651.798,548.695,666.044,557.715,678.788C565.297,689.502,571.341,700.005,574.777,711.111C578.019,721.59,580.362,733.068,578.49,743.434C576.562,754.108,570.028,765.444,562.814,774.159C555.482,783.017,534.655,796,534.655,796"
          stroke="black"
          stroke-width="1"
          fill="none"
          stroke-linecap="round"
          stroke-miterlimit="4"
        ></path>
        <path
          d="M273.027,161.616C278.294,173.678,294.617,184.846,308.659,193.939C324.402,204.133,343.625,211.692,364.051,218.182C387.515,225.637,416.529,231.445,442.211,234.246C466.669,236.913,492.055,237.217,514.573,235.296C534.602,233.587,553.401,230.595,570.854,224.779C587.391,219.267,605.412,212.188,616.942,202.02C626.953,193.192,637.009,180.67,638.308,169.697C639.501,159.614,633.497,148.013,627.136,138.945C620.078,128.885,608.556,120.867,596.223,113.131C581.318,103.781,560.684,94.868,542.619,88.889C525.409,83.193,508.862,79.733,490.452,77.521C470.242,75.093,447.517,74.649,426.131,75.939C404.635,77.235,382.435,80.343,361.809,85.334C341.85,90.165,319.868,96.516,304.22,105.051C291.643,111.91,278.317,119.348,273.367,129.434C268.888,138.559,268.718,151.75,273.027,161.616"
          stroke="black"
          stroke-width="1"
          fill="none"
          stroke-linecap="round"
          stroke-miterlimit="4"
        ></path>
        <path
          d="M381.545,796C381.545,796,350.569,787.552,337.688,779.942C325.381,772.669,313.222,762.657,305.528,751.94C298.516,742.173,293.685,730.28,292.033,719.192C290.451,708.575,295.114,686.869,295.114,686.869"
          stroke="black"
          stroke-width="1"
          fill="none"
          stroke-linecap="round"
          stroke-miterlimit="4"
        ></path>
        <path
          d="M937.751,4C937.751,4,936.583,85.069,946.769,113.131C954.262,133.774,967.31,149.21,980.905,161.562C993.274,172.8,1008.699,179.349,1023.516,185.859C1038.191,192.306,1050.453,196.401,1069.347,200.522C1098.347,206.849,1145.858,214.464,1181.91,214.086C1215.333,213.736,1253.691,208.456,1278.392,200.404C1295.279,194.9,1307.549,187.518,1318.593,178.997C1328.228,171.564,1335.874,163.119,1342.116,153.535C1348.409,143.875,1353.597,132.856,1356.122,121.212C1358.827,108.741,1359.114,93.809,1356.861,80.808C1354.62,67.872,1349.249,55.603,1342.714,43.387C1335.523,29.946,1314.534,4,1314.534,4"
          stroke="black"
          stroke-width="1"
          fill="none"
          stroke-linecap="round"
          stroke-miterlimit="4"
        ></path>
        <path
          d="M1277.866,796C1277.866,796,1251.047,784.146,1242.714,775.758C1235.808,768.804,1229.541,760.326,1228.971,751.515C1228.333,741.655,1234.843,729.138,1242.128,719.192C1250.899,707.216,1263.635,697.858,1281.051,686.869C1308.959,669.258,1353.809,648.306,1398.995,632.378C1455.486,612.465,1596,583.124,1596,583.124"
          stroke="black"
          stroke-width="1"
          fill="none"
          stroke-linecap="round"
          stroke-miterlimit="4"
        ></path>
        <path
          d="M1515.41,796L1596,752.552"
          stroke="black"
          stroke-width="1"
          fill="none"
          stroke-linecap="round"
          stroke-miterlimit="4"
        ></path>
        <path
          d="M195.383,153.535C198.664,161.385,204.844,169.417,213.991,177.778C228.773,191.29,256.586,208.681,281.407,220.512C308.348,233.354,339.323,243.226,370.531,250.505C403.473,258.189,441.083,262.992,474.372,264.47C504.972,265.828,535.012,264.631,562.814,260.491C588.351,256.689,611.524,251.251,635.176,241.964C660.208,232.134,690.777,217.631,708.695,202.02C722.572,189.93,738.134,174.445,738.47,161.616C738.764,150.349,728.094,139.422,717.163,129.293C701.13,114.438,669.129,100.237,644.355,88.889C620.329,77.884,596.309,68.563,570.854,61.856C544.731,54.972,517.771,50.158,489.468,48.485C458.997,46.683,425.742,48.793,393.97,52.76C361.684,56.791,327.469,63.505,297.301,72.727C269.291,81.29,236.636,91.758,218.584,105.051C206.177,114.187,195.639,126.621,192.965,136.03C191.192,142.268,192.887,147.566,195.383,153.535"
          stroke="black"
          stroke-width="1"
          fill="none"
          stroke-linecap="round"
          stroke-miterlimit="4"
        ></path>
        <path
          d="M244.888,796C244.888,796,226.717,772.554,221.021,759.596C215.446,746.916,211.922,732.755,210.787,719.192C209.667,705.816,210.683,691.971,214.07,678.788C217.61,665.009,224.101,650.494,232.205,638.384C240.328,626.245,251.604,615.074,262.78,606.061C273.452,597.454,284.587,590.936,297.487,585.059C311.905,578.492,329.464,572.885,345.729,569.569C361.633,566.326,377.905,564.86,393.97,565.141C410.066,565.423,426.364,567.307,442.211,571.277C458.54,575.369,474.879,581.547,490.452,589.685C506.922,598.291,523.53,609.995,538.16,622.222C552.652,634.335,566.583,648.571,577.89,662.626C588.323,675.594,598.128,689.883,604.246,703.03C609.365,714.029,613.583,724.524,614.004,735.354C614.421,746.074,612.074,757.889,606.93,767.677C601.361,778.274,580.425,796,580.425,796"
          stroke="black"
          stroke-width="1"
          fill="none"
          stroke-linecap="round"
          stroke-miterlimit="4"
        ></path>
        <path
          d="M1359.109,4C1359.109,4,1379.407,33.561,1385.576,48.485C1391.112,61.876,1394.682,75.328,1395.775,88.889C1396.854,102.267,1395.745,116.117,1392.279,129.293C1388.652,143.081,1382.166,157.854,1373.84,169.697C1365.6,181.417,1354.253,191.945,1342.714,200.083C1331.485,208.001,1321.992,213.22,1305.721,218.182C1278.311,226.54,1226.847,232.824,1189.95,234.135C1156.388,235.327,1124.825,231.589,1093.467,227.766C1063.241,224.08,1033.628,219.094,1005.025,211.967C977.18,205.028,946.181,195.702,923.985,185.859C907.228,178.428,892.633,171.837,881.95,161.616C872.456,152.532,864.557,144.395,861.356,129.293C855.536,101.834,880.232,4,880.232,4"
          stroke="black"
          stroke-width="1"
          fill="none"
          stroke-linecap="round"
          stroke-miterlimit="4"
        ></path>
        <path
          d="M1219.938,796C1219.938,796,1195.444,777.687,1190.8,767.677C1187.209,759.936,1186.804,751.671,1189.119,743.434C1192.076,732.915,1202.196,721.157,1212.059,711.111C1223.618,699.337,1237.013,690.122,1255.871,678.788C1285.229,661.143,1328.301,639.845,1374.874,621.784C1436.494,597.889,1596,555.04,1596,555.04"
          stroke="black"
          stroke-width="1"
          fill="none"
          stroke-linecap="round"
          stroke-miterlimit="4"
        ></path>
        <path
          d="M1579.6,796L1596,786.584"
          stroke="black"
          stroke-width="1"
          fill="none"
          stroke-linecap="round"
          stroke-miterlimit="4"
        ></path>
        <path
          d="M1399.953,4C1399.953,4,1417.307,33.664,1422.413,48.485C1427.055,61.959,1429.623,75.365,1430.435,88.889C1431.24,102.302,1430.19,116.013,1427.357,129.293C1424.44,142.961,1419.505,157.438,1412.863,169.697C1406.406,181.614,1397.702,193.032,1388.359,202.02C1379.548,210.496,1372.208,216.458,1358.794,222.681C1336.481,233.032,1297.593,243.61,1262.312,248.224C1221.024,253.623,1179.554,251.104,1125.628,248.396C1046.951,244.446,895.163,217.177,836.181,218.889C810.073,219.647,803.659,222.396,779.899,227.95C736.993,237.98,650.17,273.29,602.273,282.828C570.851,289.086,549.252,289.586,522.613,290.298C495.898,291.012,470.663,290.079,442.211,287.074C409.547,283.625,371.484,277.815,337.688,269.095C304.521,260.537,272.022,249.467,241.206,235.54C210.564,221.691,176.821,204.24,153.268,185.859C134.104,170.902,110.148,151.586,107.215,137.374C105.393,128.54,109.993,120.249,116.14,113.131C124.749,103.162,140.236,97.139,160.633,88.889C199.471,73.181,287.275,50.533,337.688,39.927C374.417,32.2,402.63,28.489,434.171,25.846C464.214,23.328,486.516,21.313,522.613,23.874C580.588,27.987,700.812,66.838,747.739,61.114C770.216,58.372,784.679,50.959,795.82,40.404C805.635,31.104,813.886,4,813.886,4"
          stroke="black"
          stroke-width="1"
          fill="none"
          stroke-linecap="round"
          stroke-miterlimit="4"
        ></path>
        <path
          d="M202.001,796C202.001,796,186.091,766.295,181.751,751.515C177.784,738.007,175.878,725.192,175.89,711.111C175.904,695.685,178.221,677.688,183.013,662.626C187.621,648.141,194.993,634.394,203.545,622.222C212.006,610.179,221.912,599.617,233.945,589.899C247.393,579.038,265.073,568.68,281.407,561.275C297.019,554.198,312.759,549.453,329.648,545.898C347.505,542.139,367.17,539.864,385.93,539.888C404.691,539.913,424.406,541.92,442.211,546.045C459.157,549.971,474.794,555.73,490.452,563.458C507.005,571.626,523.138,582.329,538.693,594.411C555.378,607.37,571.986,622.916,586.935,639.376C602.339,656.337,619.357,677.248,629.545,694.949C637.593,708.931,644.512,722.421,646.173,735.354C647.609,746.528,646.049,757.838,641.786,767.677C637.31,778.006,619.095,795.569,619.095,795.569"
          stroke="black"
          stroke-width="1"
          fill="none"
          stroke-linecap="round"
          stroke-miterlimit="4"
        ></path>
        <path
          d="M1173.574,796C1173.574,796,1154.053,777.358,1150.929,767.677C1148.372,759.756,1149.102,751.606,1152.143,743.434C1156.096,732.814,1166.924,721.207,1177.359,711.111C1189.435,699.428,1202.475,690.536,1221.741,678.788C1252.984,659.736,1300.049,635.228,1350.754,613.95C1418.682,585.445,1596,530.238,1596,530.238"
          stroke="black"
          stroke-width="1"
          fill="none"
          stroke-linecap="round"
          stroke-miterlimit="4"
        ></path>
        <path
          d="M4,157.862C4,157.862,200.579,251.275,265.327,274.322C301.969,287.365,323.452,292.007,353.769,298.295C385.04,304.78,414.309,310.048,450.251,312.314C495.246,315.15,550.112,316.773,603.015,309.504C662.178,301.375,738.725,271.197,787.94,261.36C820.02,254.948,832.815,251.598,868.342,250.04C937.304,247.015,1096.919,264.882,1173.869,266.004C1220.551,266.685,1250.608,268.196,1286.432,263.411C1320.091,258.914,1359.789,249.569,1382.915,239.537C1397.439,233.237,1406.112,226.964,1415.795,218.182C1425.739,209.162,1434.691,197.805,1441.588,185.859C1448.653,173.62,1453.736,159.775,1457.427,145.455C1461.346,130.253,1463.781,113.133,1463.813,96.97C1463.846,80.81,1461.755,64.034,1457.626,48.485C1453.528,33.053,1439.225,4,1439.225,4"
          stroke="black"
          stroke-width="1"
          fill="none"
          stroke-linecap="round"
          stroke-miterlimit="4"
        ></path>
        <path
          d="M434.171,4.335C434.171,4.335,181.878,58.428,104.523,69.757C62.982,75.84,8.04,78.942,8.04,78.942"
          stroke="black"
          stroke-width="1"
          fill="none"
          stroke-linecap="round"
          stroke-miterlimit="4"
        ></path>
        <path
          d="M162.558,796C162.558,796,148.826,761.502,145.724,743.434C142.583,725.139,141.777,704.832,144.019,686.869C146.136,669.912,151.131,653.355,157.882,638.384C164.466,623.784,173.646,610.146,183.712,597.98C193.684,585.928,204.941,575.28,217.917,565.657C231.894,555.29,248.416,545.908,265.327,538.564C282.892,530.936,302.014,525.134,321.608,521.14C342.134,516.956,365.207,514.516,385.93,514.559C405.318,514.6,423.718,516.217,442.211,520.557C461.255,525.026,480.95,532.433,498.492,541.408C515.752,550.239,530.889,561.165,546.734,573.781C564.223,587.705,581.91,604.955,598.339,622.222C615.162,639.903,633.071,660.093,646.38,678.788C657.972,695.071,670.148,712.232,675.001,727.273C678.687,738.693,680.626,748.964,677.952,759.596C674.851,771.923,653.901,796,653.901,796"
          stroke="black"
          stroke-width="1"
          fill="none"
          stroke-linecap="round"
          stroke-miterlimit="4"
        ></path>
        <path
          d="M1131.761,796C1131.761,796,1115.057,777.163,1112.912,767.677C1111.093,759.628,1112.719,751.557,1116.392,743.434C1121.232,732.733,1132.9,721.241,1143.996,711.111C1156.728,699.488,1169.608,690.941,1189.676,678.788C1223.916,658.051,1278.456,629.399,1334.673,604.534C1408.269,571.983,1596,506.298,1596,506.298"
          stroke="black"
          stroke-width="1"
          fill="none"
          stroke-linecap="round"
          stroke-miterlimit="4"
        ></path>
        <path
          d="M326.642,4C326.642,4,179.191,36.382,120.603,42.136C77.66,46.354,8.04,43.574,8.04,43.574"
          stroke="black"
          stroke-width="1"
          fill="none"
          stroke-linecap="round"
          stroke-miterlimit="4"
        ></path>
        <path
          d="M4,202.299C4,202.299,220.894,288.898,289.447,309.515C326.842,320.761,347.621,324.551,377.889,329.754C409.207,335.138,439.368,339.874,474.372,340.949C515.926,342.225,562.468,341.139,611.055,333.548C668.471,324.579,745.357,295.693,795.98,285.177C830.62,277.982,845.272,273.91,884.422,271.469C960.486,266.725,1139.721,282.197,1222.111,281.336C1269.698,280.839,1299.98,281.55,1334.673,275.69C1365.626,270.462,1399.595,261.065,1420.779,250.505C1435.025,243.403,1444.557,235.051,1453.316,226.263C1460.889,218.664,1465.936,211.839,1471.357,201.881C1478.431,188.884,1485.357,169.895,1489.549,153.535C1493.631,137.606,1495.882,121.867,1496.471,105.051C1497.105,86.954,1495.783,66.022,1492.403,48.485C1489.337,32.571,1478.204,4,1478.204,4"
          stroke="black"
          stroke-width="1"
          fill="none"
          stroke-linecap="round"
          stroke-miterlimit="4"
        ></path>
        <path
          d="M124.16,796C124.16,796,112.959,755.329,111.049,735.354C109.225,716.279,109.328,696.714,112.307,678.788C115.131,661.791,120.258,645.975,127.685,630.303C135.608,613.584,146.807,596.53,159.311,581.818C172.035,566.849,187.345,552.98,203.578,541.414C219.974,529.732,238.126,520.104,257.286,512.188C277.348,503.9,299.97,497.55,321.608,493.328C342.858,489.182,365.204,486.876,385.93,486.865C405.316,486.854,424.39,488.554,442.211,492.458C459.139,496.166,474.796,501.58,490.452,509.101C507.007,517.053,522.548,527.237,538.693,539.576C557.367,553.847,575.577,571.567,594.975,591.14C617.944,614.318,646.834,645.871,666.564,670.707C682.407,690.65,699.095,710.33,706.098,727.273C710.927,738.957,713.877,748.904,711.775,759.596C709.369,771.838,688.851,796,688.851,796"
          stroke="black"
          stroke-width="1"
          fill="none"
          stroke-linecap="round"
          stroke-miterlimit="4"
        ></path>
        <path
          d="M1091.374,796C1091.374,796,1076.323,777.03,1074.898,767.677C1073.656,759.529,1075.162,752.23,1080.431,743.434C1090.241,727.057,1117.442,706.085,1145.481,686.869C1186.742,658.59,1247.244,629.42,1310.553,599.684C1391.992,561.433,1596,481.581,1596,481.581"
          stroke="black"
          stroke-width="1"
          fill="none"
          stroke-linecap="round"
          stroke-miterlimit="4"
        ></path>
        <path
          d="M241.206,4.245C241.206,4.245,153.317,20.577,112.563,22.918C76.011,25.018,8.04,19.848,8.04,19.848"
          stroke="black"
          stroke-width="1"
          fill="none"
          stroke-linecap="round"
          stroke-miterlimit="4"
        ></path>
        <path
          d="M4,236.762C4,236.762,234.504,324.661,305.528,346.383C343.387,357.962,365.809,363.34,393.97,368.487C419.145,373.088,439.139,376.824,466.332,376.962C501.418,377.14,541.265,372.712,586.935,364.074C649.148,352.308,745.866,317.368,804.02,304.603C842.355,296.188,867.587,291.747,900.503,288.561C934.536,285.266,962.219,285.362,1005.025,285.608C1073.24,286.001,1202.155,296.808,1270.352,296.159C1313.175,295.752,1342.619,295.68,1374.874,290.01C1403.746,284.934,1435.306,276.16,1455.276,266.081C1468.95,259.181,1478.252,251.052,1486.692,242.424C1494.045,234.907,1498.937,228.093,1504.123,218.182C1510.93,205.173,1517.084,186.697,1521.315,169.697C1525.776,151.774,1528.435,132.037,1529.694,113.131C1530.947,94.327,1530.897,74.983,1528.9,56.566C1526.954,38.629,1518.133,4,1518.133,4"
          stroke="black"
          stroke-width="1"
          fill="none"
          stroke-linecap="round"
          stroke-miterlimit="4"
        ></path>
        <path
          d="M85.14,796C85.14,796,76.868,749.093,76.339,727.273C75.861,707.526,76.63,689.266,80.815,670.707C85.138,651.536,92.621,632.391,102.402,614.141C112.881,594.592,127.437,574.398,142.739,557.576C157.705,541.122,174.403,526.812,192.965,514.05C212.408,500.681,234.736,489.053,257.286,479.692C280.256,470.157,305.29,462.595,329.648,457.597C353.54,452.694,380.338,449.495,402.01,449.721C419.727,449.906,435.151,451.973,450.251,455.994C464.528,459.796,476.889,465.032,490.452,472.576C506.31,481.394,522.528,493.643,538.693,507.299C557.341,523.051,572.401,538.922,594.975,562.863C632.516,602.678,719.957,692.105,739.237,727.273C746.8,741.069,750.14,748.841,748.628,759.596C746.919,771.755,725.7,796,725.7,796"
          stroke="black"
          stroke-width="1"
          fill="none"
          stroke-linecap="round"
          stroke-miterlimit="4"
        ></path>
        <path
          d="M1050.124,796C1050.124,796,1038.353,783.192,1036.306,775.758C1034.267,768.357,1034.886,759.17,1037.797,751.515C1041.075,742.893,1048.481,735.363,1056.819,727.273C1067.905,716.516,1080.801,707.554,1100.668,694.949C1137.473,671.599,1200.215,638.476,1265.144,606.061C1355.754,560.824,1596,454.076,1596,454.076"
          stroke="black"
          stroke-width="1"
          fill="none"
          stroke-linecap="round"
          stroke-miterlimit="4"
        ></path>
        <path
          d="M128.643,4.07L40.201,4.145"
          stroke="black"
          stroke-width="1"
          fill="none"
          stroke-linecap="round"
          stroke-miterlimit="4"
        ></path>
        <path
          d="M4,270.065C4,270.065,62.632,287.179,93.851,298.99C129.212,312.368,174.617,332.079,204.816,347.475C226.742,358.653,247.684,368.32,259.857,379.798C268.086,387.557,275.989,395.93,276.079,404.04C276.169,412.092,269.576,418.594,260.629,428.283C239.83,450.806,168.825,490.149,136.683,521.928C111.397,546.93,93.406,570.419,77.858,597.98C62.378,625.419,49.39,655.131,43.492,686.869C37.181,720.832,43.651,796,43.651,796"
          stroke="black"
          stroke-width="1"
          fill="none"
          stroke-linecap="round"
          stroke-miterlimit="4"
        ></path>
        <path
          d="M768.271,796C768.271,796,789.584,777.405,792.407,767.677C794.697,759.785,793.945,753.731,788.968,743.434C775.123,714.792,696.849,649.436,658.506,606.061C626.019,569.309,592.787,529.929,572.124,501.01C558.751,482.294,545.079,467.567,542.222,452.525C540.053,441.105,541.874,429.153,548.012,420.202C555.331,409.528,569.901,404.452,587.923,395.96C620.458,380.627,682.054,360.701,731.658,345.934C783.417,330.526,841.499,313.482,892.462,305.941C937.394,299.293,968.065,299.855,1021.106,299.5C1107.016,298.925,1287.591,313.619,1358.794,311.879C1391.804,311.072,1408.968,309.63,1431.156,305.676C1450.628,302.206,1468.683,298.833,1485.107,290.909C1501.351,283.071,1518.098,272.158,1529.262,258.586C1540.305,245.161,1546.15,229.887,1551.961,210.101C1560.139,182.26,1564.547,139.795,1566.071,105.051C1567.56,71.108,1561.436,4,1561.436,4"
          stroke="black"
          stroke-width="1"
          fill="none"
          stroke-linecap="round"
          stroke-miterlimit="4"
        ></path>
        <path
          d="M1004.158,796C1004.158,796,990.935,782.521,988.508,775.758C986.579,770.381,986.215,765.193,988.009,759.596C990.471,751.911,998.74,742.907,1006.481,735.354C1015.495,726.557,1024.16,721.082,1039.965,711.111C1073.471,689.974,1142.503,653.378,1203.091,622.222C1277.22,584.103,1382.157,538.616,1453.376,501.01C1508.136,472.095,1596,419.228,1596,419.228"
          stroke="black"
          stroke-width="1"
          fill="none"
          stroke-linecap="round"
          stroke-miterlimit="4"
        ></path>
        <path
          d="M4,304.926C4,304.926,102.618,338.16,132.232,355.556C150.247,366.138,164.301,376.687,171.702,387.879C176.91,395.753,179.503,403.609,178.777,412.121C177.91,422.281,171.777,430.578,162.997,444.444C143.581,475.111,78.052,543.517,53.108,581.818C37.054,606.47,27.846,625.537,19.467,646.465C12.148,664.747,4,699.891,4,699.891"
          stroke="black"
          stroke-width="1"
          fill="none"
          stroke-linecap="round"
          stroke-miterlimit="4"
        ></path>
        <path
          d="M831.338,796C831.338,796,866.639,778.906,884.422,778.858C902.354,778.811,938.488,796,938.488,796"
          stroke="black"
          stroke-width="1"
          fill="none"
          stroke-linecap="round"
          stroke-miterlimit="4"
        ></path>
        <path
          d="M1596,343.994C1596,343.994,1584.03,350.047,1575.879,357.042C1558.726,371.763,1530.915,413.39,1505.234,436.364C1480.588,458.412,1463.657,469.812,1425.403,492.929C1341.41,543.687,1098.79,663.195,1005.025,706.844C959.027,728.257,923.429,747.03,900.503,751.116C889.928,753,885.207,752.134,876.382,749.958C864.423,747.01,852.361,740.861,836.181,731.251C807.435,714.179,757.296,678.944,723.618,648.088C690.964,618.171,658.73,582.123,636.493,549.495C618.024,522.396,598.146,489.974,595.168,468.687C593.373,455.862,595.647,446.193,601.541,436.364C608.879,424.125,623.306,414.58,641.083,404.04C669.346,387.285,721.522,368.887,760.721,355.556C797.183,343.155,828.063,332.794,868.342,325.7C917.942,316.965,970.284,313.112,1037.186,312.495C1135.059,311.593,1307.145,331.152,1398.995,334.091C1455.399,335.895,1503.887,339.417,1535.678,334.685C1553.318,332.059,1566.002,331.487,1575.879,322.254C1587.278,311.599,1596,269.958,1596,269.958"
          stroke="black"
          stroke-width="1"
          fill="none"
          stroke-linecap="round"
          stroke-miterlimit="4"
        ></path>
        <path
          d="M4,344.405C4,344.405,64.716,368.711,80.21,379.798C88.41,385.666,92.444,390.178,96.482,396.804C100.623,403.597,104.355,411.311,104.536,420.202C104.771,431.81,100.04,443.647,92.438,460.606C77.234,494.519,4,604.222,4,604.222"
          stroke="black"
          stroke-width="1"
          fill="none"
          stroke-linecap="round"
          stroke-miterlimit="4"
        ></path>
        <path
          d="M666.137,420.202C685.871,404.116,717.845,391.565,747.739,379.351C781.769,365.447,822.408,351.874,860.302,343.097C897.464,334.489,931.891,329.542,972.864,326.816C1021.585,323.575,1076.644,325.165,1133.668,328.549C1198.874,332.419,1288.142,341.863,1342.714,351.169C1378.441,357.261,1410.602,363.259,1430.466,371.717C1441.872,376.574,1450.087,381.579,1455.4,387.879C1459.488,392.726,1461.921,398.028,1462.339,404.04C1462.838,411.228,1460.031,420.112,1455.712,428.283C1450.098,438.904,1441.233,448.988,1428.172,460.606C1406.547,479.841,1373.366,500.851,1331.381,525.253C1260.795,566.276,1102.693,643.682,1037.186,672.51C1005.399,686.499,987.704,693.66,964.824,700.167C945.146,705.764,925.792,709.854,908.543,710.941C894.08,711.852,882.171,711.089,868.342,708.394C852.803,705.365,837.884,701.219,820.101,692.316C794.226,679.363,758.808,656.015,731.658,630.953C702.261,603.815,667.593,559.78,651.666,533.333C642.281,517.749,637.388,505.901,634.695,492.929C632.382,481.789,630.667,471.338,634.315,460.606C638.917,447.07,651.322,432.278,666.137,420.202"
          stroke="black"
          stroke-width="1"
          fill="none"
          stroke-linecap="round"
          stroke-miterlimit="4"
        ></path>
        <path
          d="M4,394.886C4,394.886,25.269,411.024,30.727,420.202C35.233,427.779,36.97,435.307,37.19,444.444C37.472,456.172,33.228,470.827,28.476,484.848C22.88,501.362,4,536.693,4,536.693"
          stroke="black"
          stroke-width="1"
          fill="none"
          stroke-linecap="round"
          stroke-miterlimit="4"
        ></path>
        <path
          d="M697.791,428.283C716.388,412.525,746.013,399.657,773.814,387.879C804.923,374.699,841.687,362.786,876.382,354.686C910.727,346.668,943.127,341.96,980.905,339.345C1025.122,336.284,1076.216,337.143,1125.628,340.43C1177.918,343.908,1241.088,350.967,1286.432,360.692C1320.75,368.052,1356.54,378.094,1375.196,387.879C1385.08,393.063,1391.051,398.005,1395.642,404.04C1399.409,408.991,1401.987,414.184,1402.454,420.202C1403.011,427.384,1400.657,436.3,1396.418,444.444C1390.868,455.109,1381.942,464.927,1368.312,476.768C1344.238,497.683,1300.69,524.406,1256.203,549.495C1196.162,583.356,1088.962,634.302,1037.186,655.708C1009.81,667.026,993.803,672.544,972.864,677.921C953.683,682.846,934.676,686.605,916.583,687.59C899.938,688.496,883.544,687.319,868.342,684.625C854.179,682.115,843.283,679.579,828.141,672.653C805.303,662.207,771.789,642.519,747.739,621.283C722.655,599.134,695.034,564.527,681.464,541.414C672.697,526.481,668.035,513.943,665.833,501.01C663.93,489.836,663.023,479.445,666.86,468.687C671.672,455.193,683.494,440.397,697.791,428.283"
          stroke="black"
          stroke-width="1"
          fill="none"
          stroke-linecap="round"
          stroke-miterlimit="4"
        ></path>
        <path
          d="M736.991,428.283C756.763,413.553,785.349,401.491,812.06,390.932C840.505,379.689,871.641,370.283,903.139,363.636C935.872,356.729,969.014,352.688,1005.025,350.86C1045.338,348.813,1091.592,350.214,1133.668,353.856C1174.632,357.402,1219.54,363.286,1254.271,372.008C1281.837,378.93,1311.018,389.148,1326.633,397.824C1335.172,402.569,1340.208,405.963,1344.62,412.121C1349.291,418.641,1353.415,428.303,1353.308,436.364C1353.2,444.465,1349.1,452.479,1343.886,460.606C1337.025,471.3,1327.257,481.015,1312.532,492.929C1286.855,513.705,1239.551,542.397,1196.514,565.657C1146.596,592.635,1079.166,625.315,1029.146,642.622C990.939,655.842,958.149,666.177,924.623,667.67C894.048,669.032,863.765,664.762,836.181,654.648C808.205,644.391,780.382,626.318,758.106,606.061C735.89,585.858,712.627,553.565,702.646,533.333C696.606,521.09,694.42,511.845,693.87,501.01C693.325,490.295,693.985,479.283,699.205,468.687C705.989,454.918,720.931,440.247,736.991,428.283"
          stroke="black"
          stroke-width="1"
          fill="none"
          stroke-linecap="round"
          stroke-miterlimit="4"
        ></path>
        <path
          d="M743.789,452.525C757.659,437.298,781.275,424.485,804.02,413.15C830.016,400.195,862.635,389.211,892.462,381.299C921.612,373.567,949.524,368.819,980.905,365.854C1016.044,362.533,1056.024,361.969,1093.467,364.103C1131.066,366.245,1172.737,370.994,1206.03,378.747C1233.709,385.193,1262.374,392.111,1280.3,404.04C1293.598,412.89,1305.844,425.627,1308.918,436.364C1311.238,444.466,1308.133,452.905,1304.832,460.606C1301.168,469.154,1296.081,475.699,1286.675,484.848C1268.584,502.445,1230.45,528.882,1195.185,549.495C1152.262,574.584,1091.44,603.707,1045.226,620.604C1007.928,634.241,972.587,644.933,940.704,648.215C914.6,650.902,891.946,650.057,868.342,644.368C843.657,638.417,817.371,626.901,795.98,612.057C774.456,597.12,751.492,571.725,739.698,554.871C732.159,544.096,728.495,535.603,725.623,525.253C722.764,514.952,720.286,503.969,722.456,492.929C725.029,479.835,732.737,464.659,743.789,452.525"
          stroke="black"
          stroke-width="1"
          fill="none"
          stroke-linecap="round"
          stroke-miterlimit="4"
        ></path>
        <path
          d="M778.928,452.525C793.16,439.732,814.891,427.988,836.181,418.147C860.179,407.053,889.498,397.682,916.583,391.032C943.111,384.519,968.873,380.616,996.985,378.364C1027.592,375.912,1062.088,375.781,1093.467,378.015C1123.672,380.165,1155.794,384.415,1181.91,390.997C1203.647,396.476,1225.251,401.821,1240.127,412.121C1252.456,420.657,1264.996,433.769,1267.781,444.444C1269.905,452.583,1266.473,461.004,1262.938,468.687C1258.992,477.264,1253.382,483.968,1243.916,492.929C1226.978,508.964,1193.903,531.82,1163.084,549.495C1126.561,570.442,1077.008,593.595,1037.186,607.364C1003.49,619.015,970.728,628.142,940.704,630.459C915.019,632.441,890.076,631.107,868.342,624.591C844.407,617.873,818.439,605.539,799.419,589.899C781.092,574.828,762.279,552.621,755.452,533.333C749.836,517.465,749.997,498.725,754.5,484.848C758.615,472.165,767.842,462.49,778.928,452.525"
          stroke="black"
          stroke-width="1"
          fill="none"
          stroke-linecap="round"
          stroke-miterlimit="4"
        ></path>
        <path
          d="M816.383,452.525C828.948,442.567,843.526,435.211,860.302,427.745C880.693,418.67,906.86,409.889,930.943,404.04C955.098,398.174,979.75,394.559,1005.025,392.636C1031.203,390.645,1059.479,390.656,1085.427,392.708C1110.068,394.656,1135.743,398.05,1157.042,404.04C1175.252,409.161,1193.981,414.856,1206.03,424.255C1215.847,431.912,1225.85,441.897,1226.958,452.525C1228.204,464.471,1219.379,479.775,1208.459,492.929C1192.231,512.477,1157.315,533.098,1128.282,549.495C1097.783,566.72,1061.776,582.469,1029.146,593.033C999.318,602.69,968.813,610.766,940.704,612.107C915.479,613.311,890.076,610.595,868.342,603.599C848.352,597.164,828.915,587.068,814.426,573.737C800.334,560.771,785.951,541.396,782.035,525.253C778.765,511.772,781.164,496.795,786.622,484.848C792.297,472.43,804.655,461.82,816.383,452.525"
          stroke="black"
          stroke-width="1"
          fill="none"
          stroke-linecap="round"
          stroke-miterlimit="4"
        ></path>
        <path
          d="M844.221,462.337C855.584,452.968,869.539,445.963,884.422,439.198C901.28,431.536,921.1,424.799,940.704,419.86C961.22,414.691,982.877,411.073,1005.025,409.304C1028.361,407.441,1054.868,407.441,1077.387,409.544C1097.414,411.414,1117.431,414.73,1133.668,419.955C1146.994,424.243,1159.96,428.808,1168.548,436.364C1175.964,442.889,1183.279,451.737,1183.999,460.606C1184.796,470.416,1178.171,482.538,1170.128,492.929C1159.074,507.212,1138.118,521.15,1117.588,533.61C1092.935,548.572,1058.867,563.988,1030.578,573.737C1005.414,582.41,980.686,589.042,956.784,591.147C934.752,593.088,911.936,592.343,892.462,587.542C874.832,583.197,857.254,575.483,844.409,565.657C832.955,556.895,822.022,545.599,817.616,533.333C813.293,521.301,813.284,504.758,817.712,492.929C822.144,481.089,833.606,471.089,844.221,462.337"
          stroke="black"
          stroke-width="1"
          fill="none"
          stroke-linecap="round"
          stroke-miterlimit="4"
        ></path>
        <path
          d="M912.284,452.525C937.944,440.25,974.052,431.989,1005.025,429.382C1035.281,426.835,1074.12,430.079,1095.963,436.364C1109.447,440.243,1120.244,445.932,1126.733,452.525C1131.416,457.284,1134.59,462.68,1134.895,468.687C1135.261,475.88,1131.352,485.018,1125.601,492.929C1117.489,504.089,1101.546,515.569,1085.427,525.399C1065.482,537.563,1036.057,550.097,1013.065,557.327C993.486,563.483,974.553,567.186,956.784,568.372C941.055,569.423,925.956,568.984,911.926,565.657C898.526,562.479,884.023,556.981,874.252,549.495C865.769,542.996,857.727,534.526,855.103,525.253C852.409,515.734,853.057,503.135,858.9,492.929C867.28,478.291,890.809,462.799,912.284,452.525"
          stroke="black"
          stroke-width="1"
          fill="none"
          stroke-linecap="round"
          stroke-miterlimit="4"
        ></path>
        <path
          d="M939.851,476.768C952.979,469.03,972.365,463.451,988.945,460.789C1005.121,458.192,1024.476,456.931,1038.088,460.606C1049.058,463.567,1062.54,470.142,1065.604,476.768C1067.801,481.518,1065.454,487.946,1062.775,492.929C1059.567,498.896,1053.913,503.906,1045.688,509.091C1031.558,517.998,1002.063,531.353,980.905,534.019C961.788,536.428,935.475,532.627,924.623,527.423C919.112,524.781,916.043,521.42,914.21,517.172C912.281,512.704,911.574,506.422,913.857,501.01C917.243,492.985,928.958,483.188,939.851,476.768"
          stroke="black"
          stroke-width="1"
          fill="none"
          stroke-linecap="round"
          stroke-miterlimit="4"
        ></path>
      </svg>